<?xml version="1.0" encoding="UTF-8" standalone="no"?>
<!-- Created with Inkscape (http://www.inkscape.org/) -->

<svg
   xmlns:dc="http://purl.org/dc/elements/1.1/"
   xmlns:cc="http://creativecommons.org/ns#"
   xmlns:rdf="http://www.w3.org/1999/02/22-rdf-syntax-ns#"
   xmlns:svg="http://www.w3.org/2000/svg"
   xmlns="http://www.w3.org/2000/svg"
   xmlns:sodipodi="http://sodipodi.sourceforge.net/DTD/sodipodi-0.dtd"
   xmlns:inkscape="http://www.inkscape.org/namespaces/inkscape"
   width="210mm"
   height="297mm"
   viewBox="0 0 210 297"
   version="1.1"
   id="svg3631"
   inkscape:version="0.92.4 (5da689c313, 2019-01-14)"
   sodipodi:docname="flower15.svg">
  <defs
     id="defs3625">
    <clipPath
       clipPathUnits="userSpaceOnUse"
       id="clipPath18">
      <path
         d="M 0,600.949 H 847.559 V 0 H 0 Z"
         id="path16"
         inkscape:connector-curvature="0" />
    </clipPath>
    <linearGradient
       id="a"
       x1="104.73"
       x2="494.51999"
       y1="335.72"
       y2="895.84003"
       gradientUnits="userSpaceOnUse">
      <stop
         stop-color="#e00"
         offset="0"
         id="stop2" />
      <stop
         stop-color="#9a0000"
         offset="1"
         id="stop4" />
    </linearGradient>
  </defs>
  <sodipodi:namedview
     id="base"
     pagecolor="#ffffff"
     bordercolor="#666666"
     borderopacity="1.0"
     inkscape:pageopacity="0.0"
     inkscape:pageshadow="2"
     inkscape:zoom="0.22883835"
     inkscape:cx="-937.27889"
     inkscape:cy="-188.28622"
     inkscape:document-units="mm"
     inkscape:current-layer="g1504"
     showgrid="false"
     showguides="true"
     inkscape:guide-bbox="true"
     inkscape:window-width="1920"
     inkscape:window-height="1001"
     inkscape:window-x="-9"
     inkscape:window-y="-9"
     inkscape:window-maximized="1"
     inkscape:snap-global="true">
    <sodipodi:guide
       position="72.922013,252.88982"
       orientation="0,1"
       id="guide4178"
       inkscape:locked="false" />
    <sodipodi:guide
       position="99.099147,43.94019"
       orientation="0,1"
       id="guide4180"
       inkscape:locked="false" />
  </sodipodi:namedview>
  <metadata
     id="metadata3628">
    <rdf:RDF>
      <cc:Work
         rdf:about="">
        <dc:format>image/svg+xml</dc:format>
        <dc:type
           rdf:resource="http://purl.org/dc/dcmitype/StillImage" />
        <dc:title></dc:title>
      </cc:Work>
    </rdf:RDF>
  </metadata>
  <g
     inkscape:label="Layer 1"
     inkscape:groupmode="layer"
     id="layer1">
    <g
       id="g11993"
       transform="translate(0.01320793,-14.655723)">
      <g
         id="g938"
         transform="translate(7.1550781,23.640221)">
        <g
           id="g1504"
           transform="translate(-169.76786,98.141978)">
          <g
             id="g1597"
             transform="matrix(2.0010445,0,0,2.0010445,384.41682,-427.7246)">
            <path
               sodipodi:nodetypes="ccccccccccccssccccccc"
               inkscape:connector-curvature="0"
               style="fill:#000000;stroke-width:0.08466667"
               d="m -58.850111,270.3425 c -0.213021,-0.28988 -0.449605,-0.6223 -0.525729,-0.73872 -0.07613,-0.11642 -0.292566,-0.42122 -0.480975,-0.67733 -0.1884,-0.25612 -0.368325,-0.52282 -0.399821,-0.59267 -0.752736,-1.04224 -1.410459,-2.22494 -2.059339,-3.34433 -1.526809,-2.60487 -2.520819,-5.47026 -2.978235,-8.255 -0.116137,-0.71536 -0.118406,-3.41542 -0.0032,-3.85234 0.357395,-1.35595 0.556819,-1.8545 1.049884,-2.62466 1.240306,-1.68851 2.785883,-2.3251 4.768774,-2.66806 2.3352,-0.11675 5.394046,0.24288 6.822849,2.43103 0.591514,0.84419 0.97704,1.85126 1.18066,2.77707 0.291417,5.70839 -1.382702,10.11288 -4.47505,14.70351 -0.147836,0.21716 -0.268791,0.43623 -0.268791,0.48683 0,0.0506 -0.03904,0.092 -0.08677,0.092 -0.04772,0 -0.119998,0.0857 -0.160613,0.1905 -0.04062,0.10477 -0.268283,0.44942 -0.505909,0.76587 -0.237625,0.31646 -0.432418,0.60221 -0.432866,0.635 -8.47e-4,0.0522 -0.175794,0.29036 -0.741215,1.00822 -0.08083,0.10261 -0.185064,0.18739 -0.231631,0.18839 -0.04657,10e-4 -0.258953,-0.23537 -0.471974,-0.52526 z"
               id="path1426" />
            <path
               inkscape:connector-curvature="0"
               style="fill:#000000;stroke-width:0.08466667"
               d="m -61.383803,260.29045 c 0,-0.0466 -0.04035,-0.0847 -0.08966,-0.0847 -0.04932,0 -0.06612,0.0381 -0.03734,0.0847 0.02878,0.0466 0.06913,0.0847 0.08966,0.0847 0.02054,0 0.03734,-0.0381 0.03734,-0.0847 z"
               id="path1424" />
            <path
               inkscape:connector-curvature="0"
               style="fill:#000000;stroke-width:0.08466667"
               d="m -61.383803,248.69111 c 0,-0.0466 -0.0168,-0.0847 -0.03734,-0.0847 -0.02053,0 -0.06088,0.0381 -0.08966,0.0847 -0.02878,0.0466 -0.01198,0.0847 0.03734,0.0847 0.04931,0 0.08966,-0.0381 0.08966,-0.0847 z"
               id="path1422" />
            <path
               sodipodi:nodetypes="ccccccccccccccccccc"
               inkscape:connector-curvature="0"
               style="fill:#000000;stroke-width:0.08466667"
               d="m -84.958932,264.10827 c -0.02893,-0.0468 -0.01488,-0.15336 0.03123,-0.23674 0.04611,-0.0834 0.146253,-0.38021 0.222538,-0.65961 0.07628,-0.2794 0.169477,-0.5461 0.207086,-0.59267 0.03762,-0.0466 0.113945,-0.25612 0.16963,-0.46567 0.858351,-2.48227 3.884079,-8.16063 6.773312,-9.06001 0.20955,-0.0553 0.41949,-0.13202 0.466531,-0.17047 0.105071,-0.0859 1.43112,-0.22524 2.793136,-0.29356 0.5588,-0.028 1.18745,-0.0866 1.397,-0.13017 0.20955,-0.0436 0.758901,-0.13778 1.220775,-0.20933 0.461873,-0.0716 0.880973,-0.16249 0.931333,-0.20208 0.05036,-0.0396 0.301109,-0.13887 0.557225,-0.22062 0.728633,-0.23255 1.455751,-0.68079 2.310139,-1.42408 0.542662,-0.47211 0.587697,-0.4943 0.813486,-0.40077 0.308017,0.12758 0.790295,0.63078 1.016719,1.06082 0.278173,0.52831 0.24649,1.33629 -0.08248,2.10373 -3.205059,7.24452 -7.895755,10.02816 -15.530195,10.80805 -1.291412,0.12681 -3.242589,0.18194 -3.297462,0.0932 z"
               id="path1406" />
            <path
               inkscape:connector-curvature="0"
               style="fill:#000000;stroke-width:0.08466667"
               d="m -72.89847,260.29092 c 0,-0.0466 -0.0381,-0.0847 -0.08467,-0.0847 -0.04657,0 -0.08467,0.0381 -0.08467,0.0847 0,0.0466 0.0381,0.0847 0.08467,0.0847 0.04657,0 0.08467,-0.0381 0.08467,-0.0847 z"
               id="path1404" />
            <path
               sodipodi:nodetypes="cccccccccccccccc"
               inkscape:connector-curvature="0"
               style="fill:#000000;stroke-width:0.08466667"
               d="m -34.332803,264.08864 c -6.460597,-0.25931 -12.829574,-3.99575 -15.559575,-9.34339 -0.713822,-1.4221 -1.37891,-2.61196 -0.684183,-3.937 0.09729,-0.20185 0.620082,-0.65568 0.878713,-0.76281 0.194632,-0.0806 0.27532,-0.0725 0.45593,0.0458 1.056703,0.99979 2.096583,1.65594 3.479115,2.07561 0.468511,0.1393 1.937791,0.34741 3.005666,0.42572 1.900055,0.0542 3.604316,0.24043 5.031368,1.34442 0.57376,0.44984 1.921857,1.89831 2.334632,2.50845 0.661984,0.97853 0.976309,1.46578 1.197136,1.85577 0.861284,1.39833 1.269106,2.71138 1.889517,4.14867 0.05675,0.0931 0.172804,0.43603 0.257911,0.762 0.08511,0.32596 0.189823,0.63862 0.232715,0.69479 0.04288,0.0562 0.05339,0.14189 0.02335,0.1905 -0.06055,0.0979 -0.431199,0.0967 -2.542294,-0.009 z"
               id="path1402" />
            <path
               inkscape:connector-curvature="0"
               style="fill:#000000;stroke-width:0.08466667"
               d="m -38.269803,260.29092 c 0,-0.0466 -0.0381,-0.0847 -0.08467,-0.0847 -0.04657,0 -0.08467,0.0381 -0.08467,0.0847 0,0.0466 0.0381,0.0847 0.08467,0.0847 0.04657,0 0.08467,-0.0381 0.08467,-0.0847 z"
               id="path1400" />
            <path
               sodipodi:nodetypes="ccccsccccccccscccccccccccccsccscccc"
               inkscape:connector-curvature="0"
               style="fill:#000000;stroke-width:0.08466667"
               d="m -91.249445,255.42211 c -0.842704,-0.071 -1.716202,-0.16714 -1.94111,-0.21358 -0.2249,-0.0465 -0.866115,-0.16251 -1.424915,-0.2579 -0.5588,-0.0954 -1.0922,-0.20734 -1.185333,-0.24878 -0.09313,-0.0414 -0.493184,-0.13621 -0.889,-0.21061 -0.395817,-0.0744 -0.795867,-0.1711 -0.889,-0.21489 -0.09313,-0.0438 -0.474134,-0.15404 -0.846667,-0.24497 -0.895257,-0.21854 -1.90591,-0.50444 -2.11667,-0.59879 -0.0931,-0.0417 -0.47413,-0.15514 -0.84666,-0.25212 -0.37254,-0.097 -0.73494,-0.20786 -0.80535,-0.24641 -0.0704,-0.0386 -0.35617,-0.1347 -0.635,-0.21366 -0.27884,-0.079 -0.62623,-0.19822 -0.77197,-0.265 -0.14574,-0.0668 -0.46007,-0.16648 -0.6985,-0.22151 -0.23844,-0.055 -0.43352,-0.13117 -0.43352,-0.16919 0,-0.038 -0.1524,-0.0935 -0.33866,-0.12328 -0.32685,-0.0523 -0.40474,-0.1468 -0.27387,-0.33241 0.057,-0.0808 1.04062,-0.92363 1.42864,-1.2241 0.62233,-0.48191 2.13187,-1.36538 2.73989,-1.60354 0.16299,-0.0638 0.41064,-0.18174 0.55034,-0.262 0.1397,-0.0803 0.4064,-0.19362 0.59266,-0.25189 0.18627,-0.0583 0.37677,-0.13551 0.423337,-0.17161 0.04657,-0.0361 0.313266,-0.13097 0.592666,-0.21085 0.2794,-0.0799 0.5461,-0.17532 0.592667,-0.2121 0.04657,-0.0368 0.332317,-0.12874 0.635,-0.20436 0.302683,-0.0756 0.626533,-0.17346 0.719667,-0.21743 0.221522,-0.10459 1.796957,-0.47435 2.921,-0.68558 0.48895,-0.0919 0.94615,-0.19175 1.016,-0.22194 0.06985,-0.0302 0.67945,-0.14389 1.354666,-0.25267 0.675217,-0.10878 1.437217,-0.2336 1.693334,-0.27738 0.400388,-0.0684 0.480966,-0.0592 0.574776,0.0657 0.06001,0.0799 0.345762,0.41102 0.635,0.73579 1.933143,2.17062 3.406885,3.23751 5.542949,4.01273 0.94858,0.34425 1.778838,0.46274 3.259108,0.4651 0.734771,0.001 1.248833,0.0352 1.248833,0.0828 -2.665932,3.95385 -8.51175,4.54911 -12.424308,4.24643 z"
               id="path1386" />
            <path
               inkscape:connector-curvature="0"
               style="fill:#000000;stroke-width:0.08466667"
               d="m -96.01247,248.69157 c 0,-0.0466 -0.0381,-0.0847 -0.08467,-0.0847 -0.04657,0 -0.08467,0.0381 -0.08467,0.0847 0,0.0466 0.0381,0.0847 0.08467,0.0847 0.04657,0 0.08467,-0.0381 0.08467,-0.0847 z"
               id="path1384" />
            <path
               sodipodi:nodetypes="ccccsccccccccccc"
               inkscape:connector-curvature="0"
               style="fill:#000000;stroke-width:0.08466667"
               d="m -31.284803,255.25758 c -1.569956,-0.2617 -3.084928,-1.03377 -4.148667,-1.65973 -0.186267,-0.10984 -0.357717,-0.22268 -0.381,-0.25074 -0.02328,-0.0281 -0.132876,-0.11293 -0.243535,-0.18858 -0.51551,-0.35245 -1.873132,-1.78911 -1.873132,-1.98219 0,-0.0554 0.465311,-0.0857 1.291167,-0.084 3.984243,0.006 6.864656,-2.16051 9.253753,-5.04498 l 0.25792,-0.31586 0.50408,0.0906 c 0.277241,0.0499 1.03748,0.18094 1.689414,0.2913 4.243207,0.84755 8.591688,1.63732 12.095556,4.27148 0.388019,0.30047 1.371685,1.14329 1.428648,1.2241 0.130861,0.18561 0.05298,0.28014 -0.273871,0.33241 -0.499632,0.2131 -0.942923,0.3125 -1.471422,0.51965 -2.909517,0.92177 -5.925052,1.99458 -8.857911,2.4535 -3.014472,0.59294 -6.422221,0.93538 -9.271,0.34304 z"
               id="path1382" />
            <path
               inkscape:connector-curvature="0"
               style="fill:#000000;stroke-width:0.08466667"
               d="m -26.67047,248.7389 c 0,-0.0205 -0.0381,-0.0609 -0.08467,-0.0897 -0.04657,-0.0288 -0.08467,-0.012 -0.08467,0.0373 0,0.0493 0.0381,0.0897 0.08467,0.0897 0.04657,0 0.08467,-0.0168 0.08467,-0.0373 z"
               id="path1380" />
            <path
               sodipodi:nodetypes="ccccccsccccccsccccccccscccc"
               inkscape:connector-curvature="0"
               style="fill:#000000;stroke-width:0.08466667"
               d="m -76.96247,250.46344 c -0.395817,-0.0435 -0.814917,-0.11531 -0.931333,-0.1595 -1.939041,-0.37532 -3.887054,-1.0281 -5.588,-1.91722 -2.438925,-1.12277 -4.959285,-3.25077 -6.396008,-4.61023 -2.049154,-1.93948 -4.824205,-5.52528 -6.327047,-8.17554 -0.129091,-0.22766 -0.330437,-0.56633 -0.447438,-0.7526 -0.233375,-0.37156 -0.460841,-0.84296 -0.460841,-0.95508 0,-0.0944 0.694656,-0.39444 1.32047,-0.5703 2.474121,-0.69527 4.945456,-0.5718 7.865864,0.39297 1.127013,0.32166 2.082569,0.84858 3.042683,1.34408 0.05552,0 0.16383,0.12382 0.240682,0.27517 0.259901,0.51181 1.391098,2.4117 1.499717,2.51883 0.02361,0.0233 0.195318,0.27082 0.381584,0.5501 0.867698,1.30092 1.96806,2.63685 3.17362,3.85304 1.55045,1.56412 1.946639,1.91604 3.134047,2.78385 0.256117,0.18718 0.504419,0.3707 0.551773,0.40783 0.08532,0.0669 0.824619,0.55456 1.39556,0.92056 0.489865,0.31403 1.776231,1.00339 2.497667,1.33849 0.372533,0.17303 0.772583,0.36494 0.889,0.42645 0.116417,0.0615 0.364067,0.15982 0.550333,0.21846 0.186267,0.0586 0.376767,0.13385 0.423334,0.16713 0.07447,0.0532 1.860287,0.66555 2.137833,0.73304 0.05821,0.0142 0.105833,0.0794 0.105833,0.14492 0,0.13671 -0.715501,0.34449 -2.709333,0.78681 -1.268933,0.2815 -1.383741,0.29224 -3.471333,0.32451 -1.18745,0.0184 -2.48285,-0.002 -2.878667,-0.0458 z"
               id="path1362" />
            <path
               inkscape:connector-curvature="0"
               style="fill:#000000;stroke-width:0.08466667"
               d="m -72.89847,248.69135 c 0,-0.0466 -0.0381,-0.0847 -0.08467,-0.0847 -0.04657,0 -0.08467,0.0381 -0.08467,0.0847 0,0.0466 0.0381,0.0847 0.08467,0.0847 0.04657,0 0.08467,-0.0381 0.08467,-0.0847 z"
               id="path1360" />
            <path
               inkscape:connector-curvature="0"
               style="fill:#000000;stroke-width:0.08466667"
               d="m -84.497803,237.17669 c 0,-0.0466 -0.0381,-0.0847 -0.08467,-0.0847 -0.04657,0 -0.08467,0.0381 -0.08467,0.0847 0,0.0466 0.0381,0.0847 0.08467,0.0847 0.04657,0 0.08467,-0.0381 0.08467,-0.0847 z"
               id="path1358" />
            <path
               sodipodi:nodetypes="cscccccsccccccscsccc"
               inkscape:connector-curvature="0"
               style="fill:#000000;stroke-width:0.08466667"
               d="m -48.239303,249.66747 c -0.474278,-0.11412 -0.613834,-0.18166 -0.613834,-0.29708 0,-0.10993 0.09363,-0.16437 0.354474,-0.20608 1.40502,-0.37702 2.905267,-1.05362 3.963526,-1.5549 0.576563,-0.27351 1.888118,-0.98495 2.286,-1.24001 0.575759,-0.36908 1.31053,-0.8539 1.395561,-0.9208 0.04735,-0.0373 0.299237,-0.22777 0.559731,-0.42333 1.352542,-1.01543 1.515051,-1.15775 2.870785,-2.51406 1.41152,-1.41212 1.743566,-1.78879 2.650083,-3.00619 0.779763,-1.04718 1.36989,-1.92344 1.796093,-2.667 0.120117,-0.20955 0.329667,-0.5715 0.465676,-0.80433 0.136,-0.23284 0.311023,-0.54361 0.388924,-0.69061 4.285082,-2.10084 8.338186,-3.42479 12.267481,-1.60296 0.280568,0.0704 0.269731,0.26385 -0.04233,0.75593 -0.1397,0.22028 -0.254,0.43224 -0.254,0.47103 0,0.0388 -0.17145,0.3262 -0.381,0.63868 -0.20955,0.3125 -0.381,0.58615 -0.381,0.60811 0,0.0731 -1.126422,1.75444 -1.797896,2.68362 -2.125041,2.94058 -4.392185,5.31772 -6.797421,7.12718 -6.990466,4.49692 -11.560826,5.61376 -18.730853,3.6428 z"
               id="path1356" />
            <path
               inkscape:connector-curvature="0"
               style="fill:#000000;stroke-width:0.08466667"
               d="m -38.269803,248.69135 c 0,-0.0466 -0.0381,-0.0847 -0.08467,-0.0847 -0.04657,0 -0.08467,0.0381 -0.08467,0.0847 0,0.0466 0.0381,0.0847 0.08467,0.0847 0.04657,0 0.08467,-0.0381 0.08467,-0.0847 z"
               id="path1354" />
            <path
               inkscape:connector-curvature="0"
               style="fill:#000000;stroke-width:0.08466667"
               d="m -26.67047,237.17669 c 0,-0.0466 -0.0381,-0.0847 -0.08467,-0.0847 -0.04657,0 -0.08467,0.0381 -0.08467,0.0847 0,0.0466 0.0381,0.0847 0.08467,0.0847 0.04657,0 0.08467,-0.0381 0.08467,-0.0847 z"
               id="path1352" />
            <path
               sodipodi:nodetypes="ccccccsccccscccccc"
               inkscape:connector-curvature="0"
               style="fill:#000000;stroke-width:0.08466667"
               d="m -73.150514,245.41767 c -0.07093,-0.0584 -0.281356,-0.22415 -0.467623,-0.36835 -3.488714,-2.91535 -4.99377,-6.71466 -5.309805,-10.75658 -0.108094,-1.46743 -0.007,-2.98611 0.201413,-3.02583 0.482493,0.38942 0.938749,1.01929 1.327565,1.41065 2.071822,1.88699 3.732323,3.07563 6.331577,3.6997 0.396011,0.0714 0.539589,0.17449 0.539589,0.38727 0,0.0881 0.03552,0.22627 0.07892,0.30713 0.447363,1.61166 1.065683,3.26018 2.001952,4.71902 0.599923,0.91923 1.712866,2.05539 2.575797,2.62954 1.20687,0.75917 2.578216,1.23818 3.8735,1.43759 0.197909,0.0298 0.359834,0.0822 0.359834,0.11655 0,0.10334 -0.361603,0.40121 -0.677334,0.55796 -0.162983,0.0809 -0.353483,0.19445 -0.423333,0.25231 -0.06985,0.0579 -0.3175,0.17514 -0.550333,0.26062 -0.232834,0.0855 -0.442705,0.18282 -0.466378,0.21632 -0.02368,0.0335 -0.442781,0.14639 -0.931334,0.25086 -3.021392,0.54924 -6.044032,-0.16714 -8.464007,-2.09476 z"
               id="path1336" />
            <path
               inkscape:connector-curvature="0"
               style="fill:#000000;stroke-width:0.08466667"
               d="m -72.89847,237.17639 c 0,-0.0466 -0.0381,-0.0847 -0.08467,-0.0847 -0.04657,0 -0.08467,0.0381 -0.08467,0.0847 0,0.0466 0.0381,0.0847 0.08467,0.0847 0.04657,0 0.08467,-0.0381 0.08467,-0.0847 z"
               id="path1334" />
            <path
               sodipodi:nodetypes="ccccccccscccccsccccccc"
               inkscape:connector-curvature="0"
               style="fill:#000000;stroke-width:0.08466667"
               d="m -54.48347,246.50859 c -0.322334,-0.16197 -0.701565,-0.49736 -0.627422,-0.55488 0.01912,-0.0148 0.470543,-0.11112 1.003173,-0.21398 0.532629,-0.10287 1.008879,-0.21919 1.058333,-0.25849 0.04945,-0.0393 0.185166,-0.099 0.301583,-0.13273 0.552873,-0.16005 1.961946,-0.92408 2.339856,-1.26873 0.05291,-0.0482 0.303928,-0.26647 0.557835,-0.48493 0.947767,-0.81547 1.956393,-2.26394 2.589826,-3.7192 0.194962,-0.44792 0.354483,-0.85958 0.354483,-0.91481 0,-0.0552 0.07203,-0.26024 0.160054,-0.4556 0.08803,-0.19535 0.208356,-0.58379 0.267394,-0.86319 0.05904,-0.2794 0.13942,-0.54419 0.178613,-0.58843 0.0392,-0.0442 0.07127,-0.1634 0.07127,-0.2648 2.539922,-1.40464 6.25318,-2.0757 7.980316,-5.3486 0.04961,-0.10478 0.155677,-0.1905 0.235703,-0.1905 0.128304,0 0.151723,0.14267 0.198027,1.2065 -0.04673,3.35511 -0.612541,6.69594 -2.536091,9.56047 -0.759824,1.09366 -1.936327,2.37358 -2.787625,3.03263 -0.186266,0.1442 -0.396697,0.30996 -0.467622,0.36835 -0.587959,0.48402 -2.231619,1.38166 -2.972969,1.6236 -0.857375,0.37875 -1.637269,0.45457 -2.556035,0.63693 -1.902852,0.23743 -3.68788,-0.26306 -5.348702,-1.16961 z"
               id="path1332" />
            <path
               sodipodi:nodetypes="cccccccscccccccccscscccc"
               inkscape:connector-curvature="0"
               style="fill:#000000;stroke-width:0.08466667"
               d="m -60.024175,244.03539 c -3.12173,-0.65881 -5.853357,-3.08083 -6.806802,-5.90486 -0.313115,-0.97337 -0.395182,-1.54471 -0.391643,-2.72653 0.0035,-1.16175 0.12446,-2.18648 0.450511,-3.81561 0.288858,-1.44327 0.932866,-3.80631 1.188348,-4.36034 0.06441,-0.1397 0.144882,-0.34925 0.178807,-0.46566 0.03393,-0.11642 0.152468,-0.41282 0.263415,-0.65868 0.110956,-0.24585 0.201736,-0.46729 0.201736,-0.49208 0,-0.18355 1.367595,-2.92297 1.945733,-3.89747 0.364405,-0.61424 1.186976,-1.89448 1.2716,-1.97911 0.02328,-0.0233 0.21176,-0.28998 0.418838,-0.59266 0.505129,-0.73835 1.857315,-2.4376 2.376212,-2.98611 0.230437,-0.2436 0.419718,-0.47147 0.420632,-0.50639 0.0076,-0.2923 0.66968,0.39959 2.027547,2.1189 0.768612,0.9732 1.67966,2.28366 2.426445,3.49026 0.642171,1.03756 0.67713,1.10146 1.343482,2.45534 0.309406,0.62865 0.636871,1.2839 0.727702,1.4561 0.09083,0.17221 0.165142,0.3536 0.165142,0.40309 0,0.0495 0.07544,0.2515 0.167648,0.4489 0.494479,1.0586 1.240604,3.56907 1.666808,5.60824 0.702962,3.36331 0.571153,6.1666 -0.370544,7.88067 -0.502454,0.91456 -0.566598,1.01924 -0.820818,1.33955 -1.815689,2.20246 -4.305803,3.26581 -7.077761,3.41531 -0.648528,0.10103 -1.245132,-0.12262 -1.773038,-0.23086 z"
               id="path1324" />
            <path
               inkscape:connector-curvature="0"
               style="fill:#000000;stroke-width:0.08466667"
               d="m -61.383803,237.17639 c 0,-0.0466 -0.04035,-0.0847 -0.08966,-0.0847 -0.04932,0 -0.06612,0.0381 -0.03734,0.0847 0.02878,0.0466 0.06913,0.0847 0.08966,0.0847 0.02054,0 0.03734,-0.0381 0.03734,-0.0847 z"
               id="path1322" />
            <path
               inkscape:connector-curvature="0"
               style="fill:#000000;stroke-width:0.08466667"
               d="m -49.826803,237.17639 c 0.02878,-0.0466 0.01198,-0.0847 -0.03734,-0.0847 -0.04931,0 -0.08966,0.0381 -0.08966,0.0847 0,0.0466 0.0168,0.0847 0.03734,0.0847 0.02053,0 0.06088,-0.0381 0.08966,-0.0847 z"
               id="path1320" />
            <path
               sodipodi:nodetypes="cccccccccscccccccccccscc"
               inkscape:connector-curvature="0"
               style="fill:#000000;stroke-width:0.08466667"
               d="m -81.948583,235.15019 c -0.927837,-0.93279 -2.125387,-2.28197 -2.633887,-2.96741 -0.116417,-0.15692 -0.365006,-0.47868 -0.552425,-0.71502 -0.562398,-0.7092 -1.770676,-2.59281 -2.320882,-3.61808 -1.803831,-3.38595 -2.922564,-6.81146 -3.40178,-10.65463 -0.268223,-2.08059 -0.76219,-7.54556 -0.11281,-8.79566 0.06386,-0.0639 2.908639,1.43859 3.71508,1.96208 3.872211,2.32462 7.312946,5.16885 10.351897,8.17547 1.293589,1.28153 1.311115,1.30384 1.264379,1.60867 -0.232199,1.51446 -0.294776,2.07387 -0.347134,3.10311 -0.05933,1.1663 0.05901,3.77739 0.208365,4.59749 0.03985,0.21881 0.152273,0.86844 0.249834,1.4436 0.09756,0.57517 0.216391,1.11866 0.264076,1.20776 0.129116,0.24124 -0.134443,0.30992 -0.36941,0.0963 -0.102404,-0.0931 -0.428811,-0.33607 -0.725347,-0.53987 -0.296537,-0.20381 -0.816068,-0.56107 -1.154515,-0.79391 -0.338447,-0.23283 -0.895926,-0.61383 -1.238843,-0.84666 -0.531054,-0.40536 -1.078982,-0.73361 -1.554818,-1.14426 l -0.0971,0.48746 c -0.05341,0.26811 -0.136186,0.67796 -0.183955,0.9108 -0.187697,0.91493 -0.293725,3.23336 -0.244907,5.35516 0.03041,1.32184 0.01862,2.13784 -0.03089,2.13784 -0.04404,0 -0.532257,-0.45459 -1.084919,-1.0102 z"
               id="path1306" />
            <path
               inkscape:connector-curvature="0"
               style="fill:#000000;stroke-width:0.08466667"
               d="m -84.497803,225.57705 c 0,-0.0466 -0.0168,-0.0847 -0.03734,-0.0847 -0.02053,0 -0.06088,0.0381 -0.08966,0.0847 -0.02878,0.0466 -0.01198,0.0847 0.03734,0.0847 0.04931,0 0.08966,-0.0381 0.08966,-0.0847 z"
               id="path1304" />
            <path
               sodipodi:nodetypes="cccccsccccccscccssc"
               inkscape:connector-curvature="0"
               style="fill:#000000;stroke-width:0.08466667"
               d="m -35.94147,233.26056 c 0.03159,-2.15887 -0.198418,-4.09751 -0.508003,-5.99141 l -0.245999,0.21228 c -1.133665,0.77222 -2.291215,1.67431 -3.415834,2.4153 -0.333765,0.18339 -0.815781,0.51763 -1.042941,0.72321 -0.131259,0.11879 -0.417559,0.16945 -0.417559,0.0739 0,-0.0263 0.03737,-0.11773 0.08305,-0.20308 0.09248,-0.17279 0.375336,-1.75199 0.56924,-3.17802 0.181364,-1.33382 0.174735,-4.87951 -0.01124,-6.01133 -0.07652,-0.46567 -0.160553,-0.98684 -0.18674,-1.15817 -0.04708,-0.30796 -0.0327,-0.32625 1.264327,-1.60866 0.721572,-0.71345 1.568628,-1.52577 1.882352,-1.80517 3.393805,-2.94275 7.21047,-5.92306 11.215674,-7.91219 0.25894,-0.1286 0.514809,-0.28208 0.768469,-0.38404 0.207628,-0.0518 0.223444,-0.0307 0.328498,0.43791 0.789334,9.00767 -2.51839,18.4956 -7.643516,24.69874 -0.476183,0.55872 -2.496964,2.59058 -2.576458,2.59058 -0.03482,0 -0.06332,-1.30492 -0.06332,-2.89983 z"
               id="path1302" />
            <path
               inkscape:connector-curvature="0"
               style="fill:#000000;stroke-width:0.08466667"
               d="m -38.269803,225.57705 c 0,-0.0466 -0.0381,-0.0847 -0.08467,-0.0847 -0.04657,0 -0.08467,0.0381 -0.08467,0.0847 0,0.0466 0.0381,0.0847 0.08467,0.0847 0.04657,0 0.08467,-0.0381 0.08467,-0.0847 z"
               id="path1300" />
            <path
               inkscape:connector-curvature="0"
               style="fill:#000000;stroke-width:0.08466667"
               d="m -26.712803,214.06239 c 0.02878,-0.0466 0.01198,-0.0847 -0.03734,-0.0847 -0.04931,0 -0.08966,0.0381 -0.08966,0.0847 0,0.0466 0.0168,0.0847 0.03734,0.0847 0.02053,0 0.06088,-0.0381 0.08966,-0.0847 z"
               id="path1298" />
            <path
               sodipodi:nodetypes="ccccccccccccccc"
               inkscape:connector-curvature="0"
               style="fill:#000000;stroke-width:0.08466667"
               d="m -71.859856,232.98108 c -0.184226,-0.2524 -0.95327,-1.63389 -1.047453,-1.8816 -0.04772,-0.12552 -0.140005,-0.34309 -0.20508,-0.48349 -0.401345,-0.86592 -0.82351,-2.3796 -1.02754,-3.68427 -0.167868,-1.07347 -0.165913,-4.36809 0.0033,-5.588 0.399799,-2.26814 0.945659,-4.96172 1.88391,-6.94267 1.363778,0.56168 2.751046,1.73547 3.478919,2.36066 0.661712,0.56856 1.739079,1.65466 2.067602,2.08434 0.106816,0.1397 0.214724,0.27305 0.239802,0.29634 0.134391,0.12477 1.005417,1.25525 1.091387,1.41649 0.08628,0.1618 0.0587,0.27084 -0.192727,0.762 -1.741807,3.63923 -3.079218,7.33197 -4.200973,11.11417 -0.131259,0.44239 -0.328448,1.10886 -0.438193,1.48105 -0.138633,0.47019 -0.243891,0.68526 -0.344889,0.70471 -0.461385,-0.40544 -1.002613,-1.22196 -1.308065,-1.63973 z"
               id="path1284" />
            <path
               inkscape:connector-curvature="0"
               style="fill:#000000;stroke-width:0.08466667"
               d="m -72.89847,225.62438 c 0,-0.0205 -0.0381,-0.0609 -0.08467,-0.0897 -0.04657,-0.0288 -0.08467,-0.012 -0.08467,0.0373 0,0.0493 0.0381,0.0897 0.08467,0.0897 0.04657,0 0.08467,-0.0168 0.08467,-0.0373 z"
               id="path1282" />
            <path
               sodipodi:nodetypes="ccccccccccccccccccccccsscc"
               inkscape:connector-curvature="0"
               style="fill:#000000;stroke-width:0.08466667"
               d="m -46.484875,234.14955 c -0.05449,-0.26776 -0.150486,-0.60113 -0.213317,-0.74083 -0.06283,-0.1397 -0.174964,-0.50165 -0.249183,-0.80433 -0.07422,-0.30269 -0.158132,-0.60749 -0.186478,-0.67734 -0.02834,-0.0699 -0.06248,-0.1651 -0.07589,-0.21166 -0.301489,-1.04797 -0.403089,-1.36917 -0.455303,-1.43934 -0.03465,-0.0466 -0.109432,-0.27516 -0.166201,-0.508 -0.05677,-0.23283 -0.154533,-0.53763 -0.217246,-0.67733 -0.06272,-0.1397 -0.177775,-0.4826 -0.255676,-0.762 -0.0779,-0.2794 -0.172255,-0.5461 -0.209669,-0.59267 -0.03741,-0.0466 -0.128626,-0.29013 -0.202692,-0.54125 -0.131411,-0.44556 -0.488637,-1.40592 -0.648995,-1.74475 -0.04408,-0.0931 -0.151808,-0.37888 -0.239395,-0.635 -0.184811,-0.5404 -1.346421,-3.09614 -1.671938,-3.67856 l -0.221649,-0.39658 0.280035,-0.3966 c 0.819539,-1.16062 2.569167,-3.04954 3.677666,-3.97044 0.993508,-0.79175 1.904788,-1.64071 3.03723,-1.97182 0.06855,0 0.169858,0.13704 0.225137,0.30452 0.832391,2.14238 1.348142,4.47663 1.659399,6.63815 0.17112,1.22273 0.171746,4.51042 0.0011,5.588 -0.63855,2.53023 -1.153935,5.24579 -3.208342,7.27278 -0.128058,0.11858 -0.232833,0.26426 -0.232833,0.32374 0,0.0595 -0.0735,0.10815 -0.163331,0.10815 -0.130903,0 -0.182998,-0.0966 -0.262407,-0.48684 z"
               id="path1280" />
            <path
               sodipodi:nodetypes="cscccccccccccccsccccccccscc"
               inkscape:connector-curvature="0"
               style="fill:#000000;stroke-width:0.08466667"
               d="m -64.647847,217.63955 c -1.05692,-1.23193 -3.244286,-3.06978 -3.421338,-3.2385 -0.132706,-0.12646 -0.151553,-0.2851 0.03681,-0.8222 0.267344,-0.76227 0.531571,-1.44796 0.678265,-1.76013 0.06565,-0.1397 0.22098,-0.4826 0.345169,-0.762 0.291736,-0.65631 1.254548,-2.58702 1.562227,-3.13267 0.414985,-0.73597 0.669146,-1.17567 0.86614,-1.49843 0.538658,-0.88253 0.888864,-1.43464 1.241298,-1.95694 0.21402,-0.3172 0.466615,-0.70514 0.561323,-0.8621 0.335095,-0.55775 0.759009,-1.03863 1.097813,-1.5234 0.876885,-1.26085 3.19041,-4.09555 3.344334,-4.09773 0.229692,-0.003 3.386099,4.07873 4.804427,6.21327 1.66701,2.50878 2.494635,3.96141 3.642004,6.39233 0.4297,0.91041 0.670357,1.46318 0.792505,1.82034 0.0637,0.18626 0.135713,0.35771 0.16002,0.381 0.04116,0.0394 0.507044,1.39107 0.507044,1.47104 0,0.0199 -0.127119,0.11123 -0.282491,0.20291 -0.705163,0.41605 -2.438425,2.07172 -3.366228,3.21555 -0.346058,0.42662 -0.491611,0.51303 -0.587011,0.33866 -0.06975,-0.12453 -0.221014,-0.4492 -0.758139,-1.24883 -1.366204,-1.98726 -2.7236,-4.26632 -4.510439,-6.13242 l -0.404495,-0.41741 -0.304012,0.29041 c -1.762604,1.91425 -3.208949,3.94071 -4.519189,6.11454 -0.382609,0.64882 -0.957589,1.49955 -1.013511,1.49955 -0.03017,0 -0.242816,-0.21908 -0.472533,-0.48684 z"
               id="path1268" />
            <path
               inkscape:connector-curvature="0"
               style="fill:#000000;stroke-width:0.08466667"
               d="m -61.299137,202.51038 c 0,-0.0894 -0.162483,-0.12691 -0.210811,-0.0487 -0.02925,0.0473 0.0062,0.0861 0.07882,0.0861 0.07259,0 0.131995,-0.0168 0.131995,-0.0373 z"
               id="path1266" />
          </g>
        </g>
      </g>
    </g>
  </g>
</svg>
